<svg width="23" height="38" viewBox="0 0 23 38" fill="none" xmlns="http://www.w3.org/2000/svg">
<g style="mix-blend-mode:multiply">
<path d="M6.03492 23.04L0.584961 17.5674H5.44696L10.8969 23.04H6.03492Z" fill="#CCCCCC"/>
</g>
<g style="mix-blend-mode:multiply">
<path d="M16.2113 17.5899C16.2414 17.3336 16.2716 17.0774 16.3017 16.8211L11.3719 11.8686C11.3719 11.7329 11.3945 9.04187 11.4397 7.82072C11.4397 7.77549 11.4473 7.73026 11.4624 7.68503C11.4624 7.57196 11.485 7.48151 11.5076 7.36844C11.5076 7.32321 11.5076 7.27798 11.5302 7.23276C11.5302 7.21768 11.5302 7.21015 11.5302 7.21015C11.5604 7.08954 11.5905 6.97647 11.6207 6.87094C11.6357 6.85586 11.6433 6.83324 11.6433 6.80309C11.6583 6.77294 11.6734 6.75033 11.6885 6.73525C11.7036 6.69003 11.7262 6.6448 11.7563 6.59957C11.7865 6.53926 11.8166 6.4865 11.8468 6.44127C11.8619 6.42619 11.8845 6.40358 11.9146 6.37343C11.9146 6.35835 11.9146 6.35081 11.9146 6.35081C11.9373 6.30559 11.9825 6.30559 12.0051 6.28297C12.0805 6.19252 12.1634 6.11714 12.2538 6.05684C12.2991 6.02668 12.3443 5.99653 12.3895 5.96638C12.48 5.90608 12.5704 5.86085 12.6609 5.8307C12.7212 5.80054 12.774 5.77793 12.8192 5.76285C12.9398 5.7327 13.0529 5.70255 13.1584 5.6724C13.2187 5.65732 13.2715 5.64978 13.3167 5.64978C13.4976 5.61963 13.6785 5.59702 13.8594 5.58194C14.2816 5.58194 14.7037 5.58194 15.1258 5.58194C15.6912 5.58194 16.2339 5.58194 16.7992 5.58194C16.9123 5.58194 17.048 5.58194 17.2063 5.58194L17.2515 0.471191L22.7015 5.94377L22.6563 11.0545C22.498 11.0545 22.3623 11.0545 22.2492 11.0545C21.6839 11.0545 21.1411 11.0545 20.5758 11.0545C20.1536 11.0394 19.7315 11.0394 19.3094 11.0545C19.1285 11.0696 18.9476 11.0922 18.7667 11.1224C18.7214 11.1224 18.6687 11.1299 18.6084 11.145C18.5028 11.16 18.3898 11.1902 18.2692 11.2354C18.2239 11.2505 18.1712 11.2656 18.1109 11.2807C18.0204 11.3259 17.9299 11.3786 17.8395 11.4389C17.7943 11.454 17.749 11.4842 17.7038 11.5294C17.6133 11.5897 17.5304 11.6576 17.455 11.7329C17.4098 11.7782 17.3872 11.8008 17.342 11.846C17.3269 11.8611 17.3118 11.8837 17.2968 11.9138C17.2741 11.9591 17.2289 12.0269 17.2063 12.0721L22.4527 17.3412C22.1814 19.3086 21.9326 21.1856 21.6612 23.0625H16.8219L16.7088 37.3771H10.7839L5.33398 31.9046H11.2588L11.3719 17.5899H16.2113Z" fill="#CCCCCC"/>
</g>
<path d="M13.0905 0.245117C13.9272 0.245117 14.7865 0.290347 15.6232 0.335575C16.166 0.358189 16.7313 0.426029 17.2514 0.471256L17.2062 5.58201C17.0479 5.58201 16.9122 5.58201 16.7991 5.58201C16.2338 5.58201 15.6911 5.58201 15.1257 5.58201C14.7036 5.58201 14.2815 5.58201 13.8593 5.58201C12.5025 5.62723 11.5075 6.14735 11.4396 7.82078C11.3944 9.04194 11.3718 11.733 11.3718 11.8687C11.4396 11.8687 12.7739 11.8687 14.1307 11.8687C14.7865 11.8687 15.4423 11.8687 15.9172 11.8687C16.2564 11.8687 16.5956 11.8687 17.0027 11.8687C16.7313 13.8361 16.4826 15.713 16.2112 17.59H11.3718L11.2587 31.9046H5.33389L5.44696 17.5674H0.584961L0.630188 11.8913H5.5148V11.4616C5.5148 10.3083 5.5148 9.15501 5.56003 8.0017C5.56003 7.30067 5.60525 6.55441 5.74094 5.83076C6.05753 4.08949 6.87163 2.61958 8.34154 1.57934C9.60792 0.65217 11.0552 0.290345 12.6156 0.245117C12.7663 0.245117 12.9246 0.245117 13.0905 0.245117Z" fill="#52695B"/>
</svg>
