<svg width="37" height="24" viewBox="0 0 37 24" fill="none" xmlns="http://www.w3.org/2000/svg">
<g style="mix-blend-mode:multiply">
<path d="M36.2805 12.3225V12.4112L36.2613 14.7338V14.8402H36.1652H32.8032L32.7648 17.943V18.0316H32.6687H30.152H30.056L25.426 13.7409L24.2349 12.6239C24.2541 12.8012 24.2925 12.9785 24.3117 13.1736C24.3117 13.1736 24.3117 13.1795 24.3117 13.1913C24.3117 13.2977 24.3117 13.4041 24.3309 13.5104C24.3309 13.7232 24.3502 13.9537 24.3502 14.1842C24.3502 14.3083 24.3502 14.4324 24.3502 14.5743C24.3309 14.7338 24.3309 14.9111 24.3309 15.0884C24.3181 15.1121 24.3117 15.1298 24.3117 15.1416C24.2733 15.579 24.2029 16.0104 24.1004 16.4359C24.1004 16.4714 24.1004 16.5068 24.0812 16.56C24.062 16.631 24.0428 16.7019 24.0043 16.7728C23.9403 17.0447 23.8571 17.3165 23.7546 17.5884C23.7162 17.6593 23.697 17.7302 23.6778 17.8012C23.6585 17.8543 23.6201 17.9075 23.6009 17.943C23.4856 18.2267 23.3512 18.4986 23.1975 18.7586C23.159 18.8295 23.1206 18.9004 23.0822 18.9714C23.0694 18.9832 23.063 19.0009 23.063 19.0245C22.8581 19.3437 22.6403 19.651 22.4098 19.9465C22.3457 20.0174 22.2817 20.0884 22.2177 20.1593C22.064 20.3366 21.8911 20.4784 21.7374 20.6203C21.5837 20.7621 21.4492 20.9217 21.2955 21.0458C21.0842 21.2231 20.8537 21.3827 20.6039 21.5422C20.4502 21.6309 20.3157 21.755 20.162 21.8437C19.8739 22.0032 19.5857 22.1273 19.2975 22.2692C19.163 22.3224 19.0286 22.411 18.8749 22.4642C18.4266 22.6415 17.9591 22.7893 17.4724 22.9075C16.5887 23.1202 15.6986 23.2266 14.802 23.2266C14.6099 23.2266 14.4178 23.2207 14.2257 23.2089C12.2661 23.1025 10.4986 22.5351 8.9233 21.4713C8.48784 21.1758 8.0844 20.8567 7.71298 20.5139L3.08301 16.2232C3.45443 16.566 3.85787 16.8851 4.29333 17.1806C5.86867 18.2444 7.63613 18.8118 9.5957 18.9182C9.78782 18.93 9.97993 18.9359 10.172 18.9359C11.0686 18.9359 11.9587 18.8295 12.8425 18.6168C13.3291 18.4986 13.7966 18.3508 14.2449 18.1735C14.3986 18.1203 14.5331 18.0494 14.6675 17.9785C14.9557 17.8543 15.2631 17.7125 15.5321 17.5529C15.6858 17.4643 15.8202 17.3579 15.9739 17.2515C16.2237 17.092 16.4542 16.9324 16.6655 16.7551C16.8192 16.631 16.9537 16.4714 17.1074 16.3473C17.2419 16.1877 17.3956 16.0459 17.5301 15.8863C16.2429 15.8863 14.8981 15.8863 14.7828 15.8863L10.1528 11.5956C10.2105 11.5956 10.5563 11.5956 11.0366 11.5956C12.5159 11.5956 15.2631 11.5956 15.4744 11.5956L18.5675 14.4679C18.7212 14.2078 18.8557 13.9419 18.9709 13.67C19.0222 13.54 19.0734 13.4159 19.1246 13.2977C19.2271 13.0258 19.3103 12.7539 19.3744 12.4821C19.4128 12.3757 19.4448 12.2634 19.4704 12.1452C19.5729 11.7197 19.6433 11.2882 19.6817 10.8509C19.701 10.6736 19.701 10.4786 19.7202 10.2835C19.7202 10.1594 19.7202 10.0176 19.7202 9.89347C19.7202 9.66298 19.701 9.45022 19.701 9.21972C19.6818 9.13107 19.6817 9.04242 19.6817 8.95377C19.3359 9.27291 18.9709 9.59205 18.6251 9.9112C17.9143 9.34383 17.1074 8.81192 15.7242 8.61689C15.4424 8.58143 15.1606 8.5637 14.8789 8.5637C14.5715 8.5637 14.2641 8.59916 13.9759 8.63462C13.8991 8.64644 13.8286 8.65826 13.7646 8.67008C13.4764 8.72327 13.1883 8.79419 12.9193 8.88284C12.8937 8.89466 12.8681 8.90649 12.8425 8.91831C12.5863 9.00105 12.343 9.10743 12.1124 9.23745C12.0484 9.26109 11.9907 9.29064 11.9395 9.3261C11.6834 9.45612 11.4464 9.60387 11.2287 9.76936C11.2031 9.80482 11.171 9.83437 11.1326 9.85801C10.9405 10.0117 10.7612 10.1772 10.5947 10.3545C10.5435 10.3899 10.4986 10.4313 10.4602 10.4786C10.3642 10.5849 10.2681 10.7091 10.172 10.8332C10.0568 10.975 9.94152 11.1169 9.84546 11.2764C9.75581 11.4301 9.67255 11.5837 9.5957 11.7374C9.53807 11.8438 9.48044 11.9325 9.42281 12.0566C9.32675 12.3048 9.21148 12.5707 9.15384 12.8544C9.07699 13.1263 9.02577 13.3981 9.00015 13.67C8.98734 13.9537 8.99374 14.2315 9.01936 14.5033C9.03857 14.8225 9.09621 15.1239 9.19227 15.4076C9.21148 15.4962 9.24991 15.5849 9.26912 15.6735C9.33316 15.8745 9.40999 16.0695 9.49965 16.2586C9.55088 16.3532 9.59571 16.4418 9.63413 16.5246C9.73659 16.7137 9.85186 16.8969 9.97993 17.0742C10.0376 17.1451 10.076 17.2161 10.1144 17.2692C10.3065 17.5175 10.5115 17.748 10.7292 17.9607L6.09922 13.67C5.89429 13.4809 5.70858 13.274 5.54208 13.0495C5.52927 13.0258 5.51006 13.0022 5.48445 12.9785C5.44602 12.9253 5.4076 12.8544 5.34996 12.8012C5.22189 12.6121 5.10662 12.423 5.00416 12.2339C4.96574 12.1511 4.92091 12.0625 4.86968 11.9679C4.85046 11.897 4.79283 11.8261 4.77362 11.7551C4.71598 11.631 4.67756 11.5069 4.63914 11.3828C4.61992 11.2942 4.58151 11.2055 4.5623 11.1169C4.48545 10.8332 4.4086 10.5495 4.38939 10.2481C4.38939 10.2363 4.38939 10.2244 4.38939 10.2126C4.36377 9.94075 4.35737 9.66297 4.37018 9.37929C4.3958 9.14289 4.43422 8.90648 4.48545 8.67008C4.49825 8.63462 4.51106 8.59916 4.52387 8.5637C4.58791 8.31548 4.66476 8.07908 4.75441 7.85449C4.77362 7.81903 4.79283 7.78357 4.79283 7.76584C4.85046 7.65946 4.9081 7.55308 4.96573 7.4467C5.02337 7.32259 5.0618 7.21621 5.13864 7.09209C5.15785 7.05663 5.19627 7.02117 5.21548 6.98571C5.31154 6.82613 5.42681 6.68429 5.54208 6.54245C5.61893 6.4538 5.65735 6.36515 5.73419 6.29423C5.75981 6.25877 5.79183 6.22331 5.83025 6.18784C5.86867 6.14056 5.9135 6.09919 5.96473 6.06373C6.13123 5.88643 6.31054 5.72095 6.50265 5.56729C6.54108 5.54365 6.5731 5.52001 6.59871 5.49637C6.81644 5.33089 7.05339 5.17722 7.30954 5.03538C7.36077 4.99992 7.4184 4.97037 7.48244 4.94673C7.71298 4.82853 7.95633 4.72215 8.21248 4.62759C8.2381 4.61576 8.26371 4.60394 8.28932 4.59212C8.55828 4.50347 8.84646 4.43255 9.13463 4.37936C9.19867 4.36754 9.26911 4.35573 9.34596 4.34391C9.63413 4.30844 9.94152 4.27298 10.2489 4.27298C10.5307 4.27298 10.8124 4.29071 11.0942 4.32617C12.4774 4.5212 13.2843 5.05311 13.9951 5.62047C14.9749 4.75169 15.9355 3.86518 16.9153 2.96094L21.5453 7.25166C21.0842 7.67719 20.6231 8.08499 20.1813 8.51051L22.3714 10.5495H25.4452L28.154 13.0317L28.1732 10.5495H30.9013L28.1925 8.0318L28.2117 4.929V4.84035L32.8416 9.13107L36.2805 12.3225Z" fill="#CCCCCC"/>
</g>
<path d="M10.4602 0.584961C12.1316 0.602691 13.7069 0.992759 15.167 1.77289C16.1275 2.28707 16.6847 2.80124 16.9152 2.96081C15.9354 3.86505 14.9749 4.75156 13.9951 5.62034C13.2842 5.05298 12.4774 4.52107 11.0941 4.32604C10.8124 4.29058 10.5306 4.27285 10.2488 4.27285C7.46316 4.27285 5.13857 6.13453 4.5238 8.56357C4.37011 9.11321 4.33168 9.66285 4.38932 10.2125C4.60065 12.482 6.23362 14.3259 8.44294 14.9997C9.00008 15.1592 9.59563 15.2301 10.172 15.2301C10.3129 15.2301 10.4538 15.2242 10.5946 15.2124C11.6321 15.1592 12.6119 14.911 13.4956 14.3614C14.9941 13.4217 15.4744 11.9678 15.4744 11.5954C15.1862 11.5954 10.4025 11.5954 10.1528 11.5954C10.1528 11.4891 10.172 9.18413 10.172 8.06713L10.1912 7.90755C13.3035 7.90755 16.4157 7.90755 19.528 7.90755C20.0467 10.6025 19.5856 13.4394 17.7797 15.6557C16.5118 17.1805 14.8404 18.1379 12.8424 18.6166C11.9587 18.8294 11.0685 18.9358 10.172 18.9358C9.97986 18.9358 9.78775 18.9299 9.59563 18.918C7.63606 18.8116 5.86861 18.2443 4.29326 17.1805C2.27605 15.7975 0.988881 13.9713 0.450959 11.7018C0.258843 10.8862 0.201204 10.0529 0.27805 9.23732C0.412531 7.26926 1.14258 5.51397 2.50659 3.98917C3.92824 2.39345 5.71491 1.34736 7.8666 0.850915C8.40452 0.720893 8.95526 0.638147 9.5188 0.602687C9.82618 0.602687 10.1336 0.584961 10.4602 0.584961Z" fill="#52695B"/>
<path d="M28.2118 4.84033V4.92898L28.1926 8.03178H31.5546H31.6507V8.12043L31.6315 10.4431V10.5495H31.5354H28.1734L28.135 13.6523V13.7409H28.0389H25.5222H25.4262V13.6523L25.4454 10.5495H22.0834H21.9873V10.4431L22.0065 8.12043V8.03178H22.1026H25.4646L25.503 4.92898V4.84033H25.5991H28.1158H28.2118Z" fill="#52695B"/>
</svg>
